{"title":"Nymphomaniac 2013 Volume I &amp; II UNRATED WEBRip XviD MP3-RARB","uid":9731964,"size":1828444688,"categoryP":"video","categoryS":"movies","magnet":"?xt=urn:btih:639f5d0f25515d6c21694702669184a0b37fe22a&amp;dn=Nymphomaniac+2013+Volume+I+%26amp%3B+II+UNRATED+WEBRip+XviD+MP3-RARB&amp;tr=udp%3A%2F%2Ftracker.openbittorrent.com%3A80&amp;tr=udp%3A%2F%2Fopen.demonii.com%3A1337&amp;tr=udp%3A%2F%2Ftracker.coppersurfer.tk%3A6969&amp;tr=udp%3A%2F%2Fexodus.desync.com%3A6969","seeders":26,"leechers":0,"uploader":".BONE.","files":3,"time":1394397140,"description":"A self-diagnosed nymphomaniac recounts her erotic experiences to the man who saved her after a beating.\n &lt;a href=&quot;\nhttp://www.imdb.com/title/tt1937390/&quot; rel=&quot;nofollow&quot; target=&quot;_NEW&quot;&gt;\nhttp://www.imdb.com/title/tt1937390/&lt;/a&gt;\n\n\nInfo:\nFormat : AVI\nFormat/Info : Audio Video Interleave\nFile size : 953 MiB\nDuration : 1h 50mn\nOverall bit rate : 1 205 Kbps\nMovie name : Downloaded from RARBG.COM\nWriting application : Lavf55.22.103\nComment : Downloaded from RARBG.COM\n\nVideo\nID : 0\nFormat : xvid\nCodec ID : xvid\nDuration : 1h 50mn\nBit rate : 1 000 Kbps\nWidth : 720 pixels\nHeight : 304 pixels\nDisplay aspect ratio : 2.35:1\nFrame rate : 25.000 fps\nBits/(Pixel*Frame) : 0.183\nStream size : 791 MiB (83%)\n\nAudio\nID : 1\nFormat : MPEG Audio\nFormat version : Version 1\nFormat profile : Layer 3\nMode : Joint stereo\nCodec ID : 55\nCodec ID/Hint : MP3\nDuration : 1h 50mn\nBit rate mode : Constant\nBit rate : 192 Kbps\nChannel(s) : 2 channels\nSampling rate : 44.1 KHz\nCompression mode : Lossy\nStream size : 152 MiB (16%)\nAlignment : Aligned on interleaves\nInterleave, duration : 26 ms (0.65 video frame)\n\nFormat : AVI\nFormat/Info : Audio Video Interleave\nFile size : 791 MiB\nDuration : 1h 58mn\nOverall bit rate : 935 Kbps\nMovie name : Downloaded from RARBG.COM\nWriting application : Lavf55.22.103\nComment : Downloaded from RARBG.COM\n\nVideo\nID : 0\nFormat : xvid\nCodec ID : xvid\nDuration : 1h 58mn\nBit rate : 730 Kbps\nWidth : 608 pixels\nHeight : 256 pixels\nDisplay aspect ratio : 2.40:1\nFrame rate : 25.000 fps\nBits/(Pixel*Frame) : 0.188\nStream size : 618 MiB (78%)\n\nAudio\nID : 1\nFormat : MPEG Audio\nFormat version : Version 1\nFormat profile : Layer 3\nMode : Joint stereo\nCodec ID : 55\nCodec ID/Hint : MP3\nDuration : 1h 58mn\nBit rate mode : Constant\nBit rate : 192 Kbps\nChannel(s) : 2 channels\nSampling rate : 44.1 KHz\nCompression mode : Lossy\nStream size : 162 MiB (21%)\nAlignment : Aligned on interleaves\nInterleave, duration : 26 ms (0.65 video frame)\n","torrent":{"xt":"urn:btih:639f5d0f25515d6c21694702669184a0b37fe22a","amp;dn":"Nymphomaniac+2013+Volume+I+%26amp%3B+II+UNRATED+WEBRip+XviD+MP3-RARB","amp;tr":["udp%3A%2F%2Ftracker.openbittorrent.com%3A80","udp%3A%2F%2Fopen.demonii.com%3A1337","udp%3A%2F%2Ftracker.coppersurfer.tk%3A6969","udp%3A%2F%2Fexodus.desync.com%3A6969"],"infoHash":"639f5d0f25515d6c21694702669184a0b37fe22a","infoHashBuffer":{"type":"Buffer","data":[99,159,93,15,37,81,93,108,33,105,71,2,102,145,132,160,179,127,226,42]},"announce":[],"urlList":[]}}